<svg width="297" height="66" viewBox="0 0 297 66" fill="none" xmlns="http://www.w3.org/2000/svg">
<symbol id="logo-symbol-wordmark">
  <path d="M47.144 37.0868C45.296 40.7828 32.888 45.6008 24.506 45.6008C16.124 45.6008 13.616 42.1688 15.266 37.0868C18.17 28.2428 32.888 19.3328 45.89 19.3328C52.094 19.3328 53.414 23.4908 57.704 23.4908C60.146 23.4908 62.72 20.8508 63.38 18.8048C66.086 10.4228 56.78 8.90477 47.276 8.90477C30.644 8.90477 8.53403 22.3028 3.32003 38.3408C-1.10197 51.9368 7.47803 56.4248 20.216 56.4248C25.364 56.4248 32.624 55.1048 39.686 52.2668C41.336 51.6068 54.008 58.9988 56.648 56.6228C59.024 54.5108 47.606 48.3068 49.058 47.3168C55.328 43.1588 60.674 37.3508 63.116 29.7608C64.304 26.0648 59.552 25.5368 57.308 25.5368C54.602 25.5368 51.764 25.9328 49.058 26.2628C45.296 26.7908 42.326 27.1208 39.884 27.5168C37.442 27.8468 35.462 28.2428 33.614 28.7708C30.314 29.7608 27.542 32.0708 26.618 34.8428C25.628 38.0108 27.542 39.4628 30.182 39.4628C35.462 39.4628 41.138 37.0868 46.352 37.0868H47.144Z" fill="#FF7500"/>
<path d="M105.475 20.46C108.445 20.262 112.075 17.358 112.999 14.52C113.857 11.88 112.603 9.702 110.161 9.702C109.435 9.702 108.577 9.768 107.851 9.834C104.023 10.23 99.7326 10.956 94.2546 11.484C88.9746 11.946 85.4766 12.21 81.9126 12.21H78.4146C74.1906 12.21 71.8806 16.698 70.8906 19.206C69.5046 22.77 69.2406 23.562 68.9766 24.354C68.2506 26.466 67.5246 28.908 65.9406 33.792C64.4886 38.214 61.4526 45.21 60.3306 48.708C59.8026 50.16 59.3406 51.018 59.0766 51.942C58.2186 55.638 60.9906 56.298 63.9606 56.298C71.8806 56.298 86.9286 53.724 92.3406 53.328C96.6306 52.932 100.789 50.82 101.845 47.586C102.835 44.55 100.261 42.834 97.2906 42.834C93.5946 42.834 89.5686 43.494 85.6746 44.154C82.1766 44.748 78.6126 45.474 75.2466 45.474C74.3886 45.474 73.4646 45.474 72.7386 45.408C73.0026 44.418 73.3986 43.164 73.6626 42.24C74.3886 40.062 74.7186 39.204 74.9826 38.544C82.2426 37.488 89.7666 36.96 96.4986 35.772C98.8086 35.31 103.363 33.726 104.485 30.36C105.277 27.852 104.155 25.938 101.251 25.938C97.1586 25.938 86.4006 28.182 78.5466 28.446L78.8106 27.72C79.3386 26.004 80.1966 23.694 80.8566 21.912C84.9486 21.78 96.4986 21.054 105.475 20.46Z" fill="#FF7500"/>
<path fill-rule="evenodd" clip-rule="evenodd" d="M142.408 51.7532C136.753 54.84 130.44 56.6133 124.39 56.6133C111.962 56.6133 104.071 49.7172 108.148 37.3041C113.014 22.3953 131.887 8.8 148.063 8.8C159.768 8.8 166.278 16.944 162.135 29.4885C160.228 35.4651 156.348 40.9821 151.351 45.4481C150.036 46.6303 148.655 47.7469 147.142 48.7977C145.63 49.9142 144.052 50.8994 142.408 51.7532ZM150.825 29.0287C152.469 23.9715 151.219 18.9144 143.92 18.9144C134.714 18.9144 123.141 27.6495 119.919 37.3698C117.88 43.8062 120.774 46.5647 127.152 46.5647C137.542 46.5647 147.997 37.7638 150.825 29.0287Z" fill="#FF7500"/>
<path fill-rule="evenodd" clip-rule="evenodd" d="M196.469 48.1462C202.121 44.8503 207.839 39.3792 209.416 34.5013C210.862 29.953 208.693 26.723 202.253 25.7342C205.539 23.9544 209.154 21.3177 210.205 18.0878C212.308 11.4301 205.999 9.38666 197.849 9.38666C192.263 9.38666 181.944 10.5732 175.635 12.0234C173.4 12.5507 171.363 14.3964 170.771 16.1103C170.583 16.7313 170.295 17.7727 169.971 18.9445L169.971 18.9445C169.505 20.6331 168.963 22.5924 168.536 23.9544C168.038 25.482 167.656 26.6234 167.244 27.8569C166.677 29.5509 166.052 31.4187 164.987 34.699C164.122 37.3683 163.325 40.0714 162.535 42.7484C161.764 45.3601 161.001 47.9469 160.19 50.4533C158.546 55.4631 163.541 56.32 166.893 56.32C176.357 56.2541 187.268 53.5514 196.469 48.1462ZM194.103 19.2743C194.657 19.2743 195.172 19.2358 195.613 19.2028C196.585 19.1301 197.196 19.0845 197.06 19.538C196.14 22.3724 184.639 26.0638 179.381 26.8548L181.287 20.9881C184.441 20.329 191.145 19.2743 194.103 19.2743ZM192.592 34.4775C191.923 34.489 191.216 34.5013 190.488 34.5013C185.756 34.5013 181.484 35.4241 176.292 36.7425L173.203 46.3005C173.087 46.5335 174.151 46.5091 174.536 46.5003C174.587 46.4992 174.626 46.4983 174.649 46.4983C181.418 46.4983 196.6 38.7859 197.586 35.6878C198.02 34.3838 195.729 34.4233 192.592 34.4775Z" fill="#FF7500"/>
<path d="M222.477 41.283C225.117 33.165 228.021 25.839 230.397 18.447C230.991 16.665 231.915 15.147 232.377 13.695C233.103 11.253 232.179 8.943 229.407 8.943C225.381 8.943 220.893 11.517 219.441 16.071C218.847 17.721 218.385 20.097 214.161 33.099C211.785 40.689 208.221 48.213 206.967 52.041C206.175 54.417 206.571 57.057 209.871 57.057C211.587 57.057 213.303 56.661 215.283 56.133C217.065 55.671 219.243 55.077 221.817 54.681C227.559 53.691 230.859 53.031 238.053 51.975C241.353 51.513 243.531 47.091 243.927 45.903C244.983 42.735 243.135 41.613 241.155 41.613C239.637 41.613 238.119 41.811 236.403 42.141C232.707 42.801 229.077 43.725 225.381 44.583C222.015 45.375 221.157 45.243 221.025 45.441C221.487 44.187 221.949 42.801 222.477 41.283Z" fill="#FF7500"/>
<path fill-rule="evenodd" clip-rule="evenodd" d="M296.735 49.1962C295.552 52.8085 291.147 55.0415 288.188 55.0415C286.479 55.0415 284.967 52.6114 284.047 48.4737C283.586 46.3064 283.126 44.139 282.6 42.103C279.337 42.4512 275.432 42.6316 271.658 42.8059C267.602 42.9933 263.697 43.1736 260.904 43.5479C260.419 44.148 259.901 44.7724 259.354 45.4325C258.344 46.6509 257.233 47.991 256.039 49.5246C255.156 50.647 254.543 51.5738 254.019 52.3645C253.685 52.8692 253.388 53.3185 253.08 53.728C251.568 55.6983 249.596 56.0267 248.149 56.0267C243.35 56.0267 241.969 53.925 242.824 51.3636C243.284 49.7873 244.468 48.211 245.98 46.5034C246.747 45.5974 247.681 44.5804 248.762 43.4035C249.719 42.3622 250.79 41.1957 251.963 39.87C252.856 38.8966 254.161 37.3779 255.833 35.4329C258.222 32.6532 261.36 29.0029 265.112 24.8298C266.26 23.5707 267.408 22.273 268.548 20.9844C270.737 18.5088 272.898 16.0662 274.974 13.993C277.998 10.9718 281.482 8.21333 284.704 8.21333C288.439 8.21333 289.148 13.2244 289.681 16.9951C289.833 18.07 289.971 19.0441 290.161 19.7726C291.298 24.315 292.06 27.7471 292.739 30.8074C293.592 34.6499 294.315 37.9061 295.486 42.0373C295.564 42.3474 295.68 42.7489 295.811 43.2064C296.35 45.0749 297.158 47.8772 296.735 49.1962ZM280.365 33.0395L279.313 28.442C279.286 28.3101 279.239 28.0375 279.177 27.6862C278.933 26.2893 278.471 23.6476 278.261 23.6476C277.956 23.6476 277.65 23.9876 277.134 24.5624C277.094 24.6064 277.054 24.6518 277.012 24.6984C276.163 25.5467 275.034 26.842 273.47 28.6361C273.339 28.7868 273.205 28.941 273.067 29.0988L269.057 33.6306L269.185 33.6261C272.891 33.4962 276.66 33.3641 280.365 33.0395Z" fill="#FF7500"/>
</symbol>
</svg>
