<svg width="79" height="79" viewBox="0 0 79 79" fill="none" xmlns="http://www.w3.org/2000/svg">
<path d="M54.0171 43.1066C51.9036 47.3337 37.7129 52.8439 28.1265 52.8439C18.5402 52.8439 15.6719 48.9188 17.5589 43.1066C20.8802 32.992 37.7128 22.8018 52.583 22.8018C59.6783 22.8018 61.188 27.5572 66.0944 27.5572C68.8873 27.5572 71.8311 24.5379 72.5859 22.1979C75.6807 12.6116 65.0376 10.8755 54.1681 10.8755C35.1464 10.8755 9.85969 26.1985 3.89655 44.5408C-1.1608 60.0903 8.65197 65.2231 23.2202 65.2231C29.1078 65.2231 37.4109 63.7135 45.4876 60.4677C47.3746 59.7129 61.8673 68.1669 64.8867 65.4496C67.604 63.0341 54.5455 55.9387 56.2061 54.8065C63.377 50.0511 69.4911 43.4086 72.284 34.7281C73.6427 30.501 68.2079 29.8972 65.6415 29.8972C62.5467 29.8972 59.3009 30.3501 56.2061 30.7275C51.9036 31.3313 48.5069 31.7087 45.714 32.1616C42.9212 32.5391 40.6567 32.992 38.5432 33.5958C34.769 34.7281 31.5987 37.37 30.542 40.5402C29.4097 44.1634 31.5987 45.824 34.6181 45.824C40.6567 45.824 47.1482 43.1066 53.1113 43.1066H54.0171Z" fill="white"/>
</svg>
